<svg version="1.1" id="Layer_1" xmlns="http://www.w3.org/2000/svg" xmlns:xlink="http://www.w3.org/1999/xlink" x="0px" y="0px"
	 width="100%" viewBox="0 0 1080 1080" enable-background="new 0 0 1080 1080" xml:space="preserve">
<path fill="#FFFFFF" opacity="1.000000" stroke="none" 
	d="
M532.000000,1081.000000 
	C355.034393,1081.000000 178.068771,1081.000000 1.051574,1081.000000 
	C1.051574,721.104309 1.051574,361.208618 1.051574,1.000000 
	C177.694580,1.000000 354.389343,1.000000 531.338318,1.328560 
	C516.857422,3.984761 503.997803,10.189853 493.259033,20.552113 
	C458.863251,53.741875 420.755859,81.631134 377.576477,102.441635 
	C330.775146,124.997757 281.348877,138.140930 229.894470,144.033157 
	C212.869949,145.982697 195.686691,146.697388 178.734070,149.094528 
	C131.504120,155.772934 90.455063,197.496185 85.171173,244.830063 
	C83.016525,264.131683 82.598808,283.695129 82.501152,303.145050 
	C82.259453,351.279877 82.289711,399.422699 82.917145,447.553101 
	C83.416512,485.860138 86.870346,523.995972 91.856506,561.992737 
	C98.518120,612.757202 109.231842,662.575500 125.994003,711.016174 
	C156.111603,798.052368 203.856018,873.733093 271.744812,936.284973 
	C327.325470,987.496399 391.096680,1025.953247 460.551025,1055.041016 
	C483.896545,1064.818237 508.157471,1072.409546 532.000000,1081.000000 
z"/>
<path fill="#FFFFFF" opacity="1.000000" stroke="none" 
	d="
M550.000000,1.000004 
	C726.965637,1.000000 903.931213,1.000000 1080.948486,1.000000 
	C1080.948486,360.895660 1080.948486,720.791321 1080.948486,1081.000000 
	C904.305420,1081.000000 727.610657,1081.000000 550.687927,1080.671387 
	C556.904358,1078.775391 563.532593,1077.733887 569.762878,1075.554443 
	C606.056335,1062.858398 641.355652,1047.807861 675.455444,1030.001221 
	C729.034851,1002.022522 778.400818,968.098572 821.741150,925.776428 
	C892.732178,856.453247 939.633789,772.950928 966.966553,678.030151 
	C979.793640,633.484741 988.024109,588.052063 993.200439,542.002686 
	C997.798035,501.102295 1000.352417,460.078308 1000.686462,418.957184 
	C1001.015137,378.491852 1000.637146,338.013885 999.993103,297.550659 
	C999.686401,278.280090 999.682800,258.771149 996.683594,239.822647 
	C988.981140,191.159775 944.400146,151.831940 895.549500,147.736664 
	C870.208496,145.612274 844.793579,143.176544 819.751221,138.897034 
	C731.762024,123.860497 655.923645,84.571785 591.547058,22.737974 
	C584.611877,16.076698 575.872559,11.049932 567.367432,6.357317 
	C562.174011,3.491851 555.828247,2.714944 550.000000,1.000004 
z"/>
<path fill="#35A854" opacity="1.000000" stroke="none" 
	d="
M549.532043,1.000004 
	C555.828247,2.714944 562.174011,3.491851 567.367432,6.357317 
	C575.872559,11.049932 584.611877,16.076698 591.547058,22.737974 
	C655.923645,84.571785 731.762024,123.860497 819.751221,138.897034 
	C844.793579,143.176544 870.208496,145.612274 895.549500,147.736664 
	C944.400146,151.831940 988.981140,191.159775 996.683594,239.822647 
	C999.682800,258.771149 999.686401,278.280090 999.993103,297.550659 
	C1000.637146,338.013885 1001.015137,378.491852 1000.686462,418.957184 
	C1000.352417,460.078308 997.798035,501.102295 993.200439,542.002686 
	C988.024109,588.052063 979.793640,633.484741 966.966553,678.030151 
	C939.633789,772.950928 892.732178,856.453247 821.741150,925.776428 
	C778.400818,968.098572 729.034851,1002.022522 675.455444,1030.001221 
	C641.355652,1047.807861 606.056335,1062.858398 569.762878,1075.554443 
	C563.532593,1077.733887 556.904358,1078.775391 550.229980,1080.671387 
	C544.311951,1081.000000 538.623962,1081.000000 532.467957,1081.000000 
	C508.157471,1072.409546 483.896545,1064.818237 460.551025,1055.041016 
	C391.096680,1025.953247 327.325470,987.496399 271.744812,936.284973 
	C203.856018,873.733093 156.111603,798.052368 125.994003,711.016174 
	C109.231842,662.575500 98.518120,612.757202 91.856506,561.992737 
	C86.870346,523.995972 83.416512,485.860138 82.917145,447.553101 
	C82.289711,399.422699 82.259453,351.279877 82.501152,303.145050 
	C82.598808,283.695129 83.016525,264.131683 85.171173,244.830063 
	C90.455063,197.496185 131.504120,155.772934 178.734070,149.094528 
	C195.686691,146.697388 212.869949,145.982697 229.894470,144.033157 
	C281.348877,138.140930 330.775146,124.997757 377.576477,102.441635 
	C420.755859,81.631134 458.863251,53.741875 493.259033,20.552113 
	C503.997803,10.189853 516.857422,3.984761 531.796265,1.328560 
	C537.688049,1.000000 543.376038,1.000000 549.532043,1.000004 
M937.114441,325.500793 
	C936.675842,304.024536 936.433594,282.541992 935.749939,261.073547 
	C934.859558,233.112656 914.817505,212.710388 886.854370,210.836441 
	C855.940369,208.764755 825.213867,205.266602 794.845215,198.941559 
	C726.011597,184.605209 662.337341,158.163422 605.618286,116.388062 
	C585.293091,101.417877 566.658203,84.146210 547.334290,67.827385 
	C542.330811,63.601978 540.170837,63.451618 535.467773,67.878090 
	C531.587402,71.530228 527.700806,75.176796 523.765686,78.769699 
	C478.808746,119.817093 428.259857,151.897644 371.514862,174.186188 
	C314.876007,196.433075 255.882278,207.112350 195.409332,210.857285 
	C168.174774,212.543854 147.867050,233.397903 147.029053,260.536255 
	C146.371399,281.833984 145.551086,303.136658 145.465103,324.439819 
	C145.313171,362.078247 145.352814,399.723175 145.885849,437.357239 
	C146.546661,484.013000 150.481018,530.421936 157.847855,576.527344 
	C167.640823,637.816589 184.269958,697.002502 212.001892,752.753357 
	C241.018127,811.086060 280.481323,861.291199 330.196503,903.384033 
	C390.975311,954.844177 460.669006,990.182312 535.445251,1016.166016 
	C538.938232,1017.379761 543.572571,1017.471741 547.042786,1016.265869 
	C605.128174,996.082947 660.337341,970.021301 711.046143,934.935181 
	C784.307190,884.244690 840.370361,819.012695 877.564331,737.848816 
	C903.136169,682.046265 918.104126,623.237061 926.925354,562.723572 
	C934.671692,509.583923 937.207886,456.063477 937.722046,402.439972 
	C937.964722,377.131348 937.343933,351.814423 937.114441,325.500793 
z"/>
<path fill="#FFFFFF" opacity="1.000000" stroke="none" 
	d="
M937.114441,326.001038 
	C937.343933,351.814423 937.964722,377.131348 937.722046,402.439972 
	C937.207886,456.063477 934.671692,509.583923 926.925354,562.723572 
	C918.104126,623.237061 903.136169,682.046265 877.564331,737.848816 
	C840.370361,819.012695 784.307190,884.244690 711.046143,934.935181 
	C660.337341,970.021301 605.128174,996.082947 547.042786,1016.265869 
	C543.572571,1017.471741 538.938232,1017.379761 535.445251,1016.166016 
	C460.669006,990.182312 390.975311,954.844177 330.196503,903.384033 
	C280.481323,861.291199 241.018127,811.086060 212.001892,752.753357 
	C184.269958,697.002502 167.640823,637.816589 157.847855,576.527344 
	C150.481018,530.421936 146.546661,484.013000 145.885849,437.357239 
	C145.352814,399.723175 145.313171,362.078247 145.465103,324.439819 
	C145.551086,303.136658 146.371399,281.833984 147.029053,260.536255 
	C147.867050,233.397903 168.174774,212.543854 195.409332,210.857285 
	C255.882278,207.112350 314.876007,196.433075 371.514862,174.186188 
	C428.259857,151.897644 478.808746,119.817093 523.765686,78.769699 
	C527.700806,75.176796 531.587402,71.530228 535.467773,67.878090 
	C540.170837,63.451618 542.330811,63.601978 547.334290,67.827385 
	C566.658203,84.146210 585.293091,101.417877 605.618286,116.388062 
	C662.337341,158.163422 726.011597,184.605209 794.845215,198.941559 
	C825.213867,205.266602 855.940369,208.764755 886.854370,210.836441 
	C914.817505,212.710388 934.859558,233.112656 935.749939,261.073547 
	C936.433594,282.541992 936.675842,304.024536 937.114441,326.001038 
M281.983795,469.476074 
	C269.431519,515.415710 268.783905,561.530579 280.724579,607.626343 
	C296.251129,667.565063 328.520416,716.851501 377.756775,754.301208 
	C442.755951,803.740356 516.061523,820.330322 595.968445,804.409180 
	C655.722351,792.503479 706.037903,762.776794 745.229797,716.060852 
	C805.772522,643.894836 824.494812,561.220337 800.634583,470.271057 
	C782.129456,399.734009 739.659729,346.000641 676.947632,308.849091 
	C625.098083,278.132690 568.832886,266.940857 509.003174,273.940338 
	C465.022430,279.085632 424.759521,294.367401 388.519012,319.738220 
	C335.571320,356.805267 300.132080,406.553192 281.983795,469.476074 
z"/>
<path fill="#35A854" opacity="1.000000" stroke="none" 
	d="
M282.065613,469.077423 
	C300.132080,406.553192 335.571320,356.805267 388.519012,319.738220 
	C424.759521,294.367401 465.022430,279.085632 509.003174,273.940338 
	C568.832886,266.940857 625.098083,278.132690 676.947632,308.849091 
	C739.659729,346.000641 782.129456,399.734009 800.634583,470.271057 
	C824.494812,561.220337 805.772522,643.894836 745.229797,716.060852 
	C706.037903,762.776794 655.722351,792.503479 595.968445,804.409180 
	C516.061523,820.330322 442.755951,803.740356 377.756775,754.301208 
	C328.520416,716.851501 296.251129,667.565063 280.724579,607.626343 
	C268.783905,561.530579 269.431519,515.415710 282.065613,469.077423 
M724.369446,447.156860 
	C715.003845,428.969025 703.425842,412.291626 688.915771,397.889038 
	C638.761047,348.105896 578.431213,326.947266 508.599548,338.250946 
	C437.938477,349.688904 386.181366,389.088318 355.537903,453.551453 
	C326.682220,514.253784 327.578217,576.301514 359.236664,635.705627 
	C397.224640,706.986633 458.323761,743.936646 539.019836,746.602295 
	C581.022400,747.989746 620.089783,736.124329 654.875427,712.356201 
	C711.739258,673.502625 742.585205,619.272156 746.795959,550.550171 
	C749.006592,514.470398 741.067627,480.120148 724.369446,447.156860 
z"/>
<path fill="#FEFFFF" opacity="1.000000" stroke="none" 
	d="
M724.567749,447.470520 
	C741.067627,480.120148 749.006592,514.470398 746.795959,550.550171 
	C742.585205,619.272156 711.739258,673.502625 654.875427,712.356201 
	C620.089783,736.124329 581.022400,747.989746 539.019836,746.602295 
	C458.323761,743.936646 397.224640,706.986633 359.236664,635.705627 
	C327.578217,576.301514 326.682220,514.253784 355.537903,453.551453 
	C386.181366,389.088318 437.938477,349.688904 508.599548,338.250946 
	C578.431213,326.947266 638.761047,348.105896 688.915771,397.889038 
	C703.425842,412.291626 715.003845,428.969025 724.567749,447.470520 
M581.312927,494.812805 
	C552.159363,523.967468 523.005737,553.122131 493.364655,582.764282 
	C491.872803,580.971436 490.897369,579.600281 489.726471,578.423584 
	C479.974976,568.623474 470.289490,558.754395 460.384247,549.111389 
	C448.756866,537.791931 432.905518,536.029663 420.161713,544.356689 
	C402.998474,555.571472 400.763184,578.912048 415.674561,594.061584 
	C433.083923,611.748962 450.739868,629.193665 468.290558,646.741882 
	C484.747284,663.196228 502.530823,663.245789 518.901245,646.876465 
	C566.133362,599.647705 613.364014,552.417480 660.587891,505.180542 
	C662.235352,503.532654 663.940063,501.915070 665.389160,500.100525 
	C672.416321,491.301331 674.658020,481.456543 671.299561,470.600464 
	C664.435181,448.411743 637.167786,440.593323 620.159790,456.353394 
	C606.974365,468.571472 594.566345,481.628571 581.312927,494.812805 
z"/>
<path fill="#35A853" opacity="1.000000" stroke="none" 
	d="
M581.562866,494.562744 
	C594.566345,481.628571 606.974365,468.571472 620.159790,456.353394 
	C637.167786,440.593323 664.435181,448.411743 671.299561,470.600464 
	C674.658020,481.456543 672.416321,491.301331 665.389160,500.100525 
	C663.940063,501.915070 662.235352,503.532654 660.587891,505.180542 
	C613.364014,552.417480 566.133362,599.647705 518.901245,646.876465 
	C502.530823,663.245789 484.747284,663.196228 468.290558,646.741882 
	C450.739868,629.193665 433.083923,611.748962 415.674561,594.061584 
	C400.763184,578.912048 402.998474,555.571472 420.161713,544.356689 
	C432.905518,536.029663 448.756866,537.791931 460.384247,549.111389 
	C470.289490,558.754395 479.974976,568.623474 489.726471,578.423584 
	C490.897369,579.600281 491.872803,580.971436 493.364655,582.764282 
	C523.005737,553.122131 552.159363,523.967468 581.562866,494.562744 
z"/>
</svg>